<svg width="32" height="16" viewBox="0 0 32 16" fill="none" xmlns="http://www.w3.org/2000/svg">
<path fill-rule="evenodd" clip-rule="evenodd" d="M28.7354 1H31.9438C31.9924 1 32.0178 1.05669 31.9861 1.08819L26.5584 7.98345C26.5415 8.00024 26.5415 8.03384 26.5584 8.04854L31.9861 14.9438C32.0178 14.9837 31.9861 15.0341 31.9438 15.0341H28.7354C28.7206 15.0341 28.7037 15.0257 28.6953 15.0089L24.9056 10.0894C24.8887 10.0663 24.8485 10.0663 24.8232 10.0894L21.0335 15.0089C21.0251 15.0257 21.0103 15.0341 20.9934 15.0341H17.785C17.7427 15.0341 17.7216 14.9753 17.7427 14.9438L23.1704 8.04854C23.1852 8.03384 23.1852 8.00024 23.1704 7.98345L17.7427 1.08819C17.7131 1.04829 17.7427 1 17.785 1H20.9934C21.0103 1 21.0251 1.0084 21.0335 1.0252L24.8232 5.94258C24.8401 5.96778 24.8803 5.96778 24.9056 5.94258L28.6953 1.0252C28.7037 1.0084 28.7206 1 28.7354 1ZM16.485 14.7264L18.5964 12.1396C18.6112 12.1228 18.6197 12.0997 18.6197 12.0829L17.0007 1.08283C16.9922 1.04293 16.9584 1.00934 16.9182 1.00934H14.7814C14.7476 1.00934 14.7159 1.02614 14.7074 1.05763L9.63272 11.3354C9.60102 11.4005 9.51013 11.4005 9.48688 11.3354L4.36145 1.05763C4.34454 1.02614 4.32129 1.00934 4.28959 1.00934H2.12951C2.08723 1.00934 2.05342 1.04293 2.04496 1.08283L0.00112912 14.9447C-0.0073252 14.993 0.0328328 15.0413 0.0835588 15.0413H2.57758C2.61986 15.0413 2.66213 15.0098 2.66213 14.9699L3.89435 5.96032C3.9028 5.87844 4.01905 5.86374 4.05286 5.93723L8.57593 15.0014C8.59284 15.035 8.6182 15.0497 8.6499 15.0497H10.419C10.4507 15.0497 10.4845 15.035 10.4929 15.0014L14.9611 5.98552C14.9928 5.91203 15.109 5.92883 15.1175 6.00861L16.3349 14.6844C16.3433 14.7579 16.4427 14.781 16.485 14.7264Z" fill="#121417"/>
</svg>
