<svg xmlns="http://www.w3.org/2000/svg" width="16" height="16" fill="none" viewBox="0 0 16 16">
  <path fill="currentColor" fill-rule="evenodd" d="M6.5 9a.5.5 0 01.5.5v6a.5.5 0 01-.5.5h-6a.5.5 0 01-.5-.5v-6A.5.5 0 01.5 9h6zm9 0a.5.5 0 01.5.5v6a.5.5 0 01-.5.5h-6a.5.5 0 01-.5-.5v-6a.5.5 0 01.5-.5h6zM6 10H1v5h5v-5zm9 0h-5v5h5v-5zM6.5 0a.5.5 0 01.5.5v6a.5.5 0 01-.5.5h-6a.5.5 0 01-.5-.5v-6A.5.5 0 01.5 0h6zm9 0a.5.5 0 01.5.5v6a.5.5 0 01-.5.5h-6a.5.5 0 01-.5-.5v-6a.5.5 0 01.5-.5h6zM6 1H1v5h5V1zm9 0h-5v5h5V1z" clip-rule="evenodd"/>
</svg>
