<svg xmlns="http://www.w3.org/2000/svg" width="16" height="16" fill="none" viewBox="0 0 16 16">
  <g clip-path="url(#clip0)">
    <path fill="currentColor" fill-rule="evenodd" d="M8 16c-4.4 0-8-3.6-8-8s3.6-8 8-8 8 3.6 8 8-3.6 8-8 8zM8 5a1 1 0 100-2 1 1 0 000 2zm-.02 8c.398 0 .72-.364.72-.813V7.314c0-.45-.322-.813-.72-.813-.398 0-.72.364-.72.813v4.875c0 .448.322.812.72.812z" clip-rule="evenodd"/>
  </g>
  <defs>
    <clipPath id="clip0">
      <path fill="#fff" d="M0 0h16v16H0V0z"/>
    </clipPath>
  </defs>
</svg>
