<svg xmlns="http://www.w3.org/2000/svg" width="16" height="16" fill="none" viewBox="0 0 16 16">
  <path fill="currentColor" fill-rule="evenodd" d="M15.53 13.5c.26 0 .47.224.47.5s-.21.5-.47.5H.47c-.26 0-.47-.224-.47-.5s.21-.5.47-.5h15.06zm0-3c.26 0 .47.224.47.5s-.21.5-.47.5H.47c-.26 0-.47-.224-.47-.5s.21-.5.47-.5h15.06zm0-3c.26 0 .47.224.47.5s-.21.5-.47.5H.47C.21 8.5 0 8.276 0 8s.21-.5.47-.5h15.06zm0-3c.26 0 .47.224.47.5s-.21.5-.47.5H.47C.21 5.5 0 5.276 0 5s.21-.5.47-.5h15.06zm0-3c.26 0 .47.224.47.5s-.21.5-.47.5H.47C.21 2.5 0 2.276 0 2s.21-.5.47-.5h15.06z" clip-rule="evenodd"/>
</svg>
