<svg width="12" height="12" viewBox="0 0 12 12" fill="none" xmlns="http://www.w3.org/2000/svg">
<path fill-rule="evenodd" clip-rule="evenodd" d="M6 0C9.3 0 12 2.7 12 6C12 9.3 9.3 12 6 12C2.7 12 0 9.3 0 6C0 2.7 2.7 0 6 0ZM8.89456 3.10544C8.75397 2.96485 8.52603 2.96485 8.38544 3.10544L6 5.49075L3.61456 3.10544C3.47397 2.96485 3.24603 2.96485 3.10544 3.10544C2.96485 3.24603 2.96485 3.47397 3.10544 3.61456L5.49075 6L3.10544 8.38544C2.96485 8.52603 2.96485 8.75397 3.10544 8.89456C3.24603 9.03515 3.47397 9.03515 3.61456 8.89456L6 6.50925L8.38544 8.89456C8.52603 9.03515 8.75397 9.03515 8.89456 8.89456C9.03515 8.75397 9.03515 8.52603 8.89456 8.38544L6.50925 6L8.89456 3.61456C9.03515 3.47397 9.03515 3.24603 8.89456 3.10544Z" fill="#F45532"/>
</svg>
