<svg width="12" height="12" viewBox="0 0 12 12" fill="none" xmlns="http://www.w3.org/2000/svg">
<g clip-path="url(#clip0)">
<path fill-rule="evenodd" clip-rule="evenodd" d="M6 12C2.68629 12 2.34843e-07 9.31371 5.24537e-07 6C8.1423e-07 2.68629 2.68629 -8.1423e-07 6 -5.24537e-07C9.31371 -2.34843e-07 12 2.68629 12 6C12 9.31371 9.31371 12 6 12ZM6 11.2C8.87188 11.2 11.2 8.87188 11.2 6C11.2 3.12812 8.87188 0.8 6 0.799999C3.12812 0.799999 0.800001 3.12812 0.8 6C0.8 8.87188 3.12812 11.2 6 11.2ZM6 3.75C5.58579 3.75 5.25 3.41421 5.25 3C5.25 2.58579 5.58579 2.25 6 2.25C6.41421 2.25 6.75 2.58579 6.75 3C6.75 3.41421 6.41421 3.75 6 3.75ZM5.985 9.75C5.68677 9.75 5.445 9.47717 5.445 9.14062L5.445 5.48437C5.445 5.14783 5.68677 4.875 5.985 4.875C6.28323 4.875 6.525 5.14783 6.525 5.48437L6.525 9.14062C6.525 9.47717 6.28323 9.75 5.985 9.75Z" fill="#A4B0C1"/>
</g>
<defs>
<clipPath id="clip0">
<path d="M0 0H12V12H0V0Z" fill="white"/>
</clipPath>
</defs>
</svg>
