<svg width="16" height="16" viewBox="0 0 16 16" fill="none" xmlns="http://www.w3.org/2000/svg">
<path fill-rule="evenodd" clip-rule="evenodd" d="M8 0C12.4 0 16 3.6 16 8C16 12.4 12.4 16 8 16C3.6 16 0 12.4 0 8C0 3.6 3.6 0 8 0ZM11.8594 4.14059C11.672 3.95314 11.368 3.95314 11.1806 4.14059L8 7.321L4.81941 4.14059C4.63196 3.95314 4.32804 3.95314 4.14059 4.14059C3.95314 4.32804 3.95314 4.63196 4.14059 4.81941L7.321 8L4.14059 11.1806C3.95314 11.368 3.95314 11.672 4.14059 11.8594C4.32804 12.0469 4.63196 12.0469 4.81941 11.8594L8 8.679L11.1806 11.8594C11.368 12.0469 11.672 12.0469 11.8594 11.8594C12.0469 11.672 12.0469 11.368 11.8594 11.1806L8.679 8L11.8594 4.81941C12.0469 4.63196 12.0469 4.32804 11.8594 4.14059Z" fill="#DF320C"/>
</svg>
