<svg width="1208" height="495" viewBox="0 0 1208 495" fill="none" xmlns="http://www.w3.org/2000/svg">
<g clip-path="url(#clip0)">
<g opacity="0.15">
<path fill-rule="evenodd" clip-rule="evenodd" d="M995.062 279.22V279.445C995.062 282.56 992.539 285.085 989.427 285.085H943.132V273.58H989.427C992.539 273.58 995.062 276.105 995.062 279.22" fill="#A5A5A5"/>
<path fill-rule="evenodd" clip-rule="evenodd" d="M963.629 279.267V279.398C963.629 281.201 962.168 282.662 960.366 282.662H943.2C943.163 282.662 943.132 282.632 943.132 282.595V276.07C943.132 276.032 943.163 276.002 943.2 276.002H960.366C962.168 276.002 963.629 277.464 963.629 279.267" fill="#C4C4C4"/>
<path fill-rule="evenodd" clip-rule="evenodd" d="M1001.59 285.085V296.59H951.015C947.902 296.59 945.379 294.065 945.379 290.95V290.725C945.379 287.61 947.902 285.085 951.015 285.085H1001.59Z" fill="#A5A5A5"/>
<path fill-rule="evenodd" clip-rule="evenodd" d="M1001.59 287.539V294.135H980.864C979.079 294.135 977.633 292.688 977.633 290.902V290.773C977.633 288.986 979.079 287.539 980.864 287.539H1001.59Z" fill="#C4C4C4"/>
<path fill-rule="evenodd" clip-rule="evenodd" d="M734.974 367.156C734.974 376.892 729.835 385.435 722.125 390.197H693.823C686.113 385.435 680.973 376.892 680.973 367.156C680.973 362.625 682.087 358.359 684.051 354.612H731.897C733.86 358.359 734.974 362.625 734.974 367.156" fill="#C4C4C4"/>
<path fill-rule="evenodd" clip-rule="evenodd" d="M742.152 390.192H753.821V345.583H742.152V390.192Z" fill="#C4C4C4"/>
<path fill-rule="evenodd" clip-rule="evenodd" d="M730.483 390.192H742.152V345.583H730.483V390.192Z" fill="#A5A5A5"/>
<path fill-rule="evenodd" clip-rule="evenodd" d="M753.822 390.192H765.491V345.583H753.822V390.192Z" fill="#A5A5A5"/>
<path fill-rule="evenodd" clip-rule="evenodd" d="M796.838 390.192H765.49V345.583H796.838C798.147 345.583 799.209 346.645 799.209 347.956V387.819C799.209 389.13 798.147 390.192 796.838 390.192" fill="white"/>
<path fill-rule="evenodd" clip-rule="evenodd" d="M770.487 356.498H794.212V352.082H770.487V356.498Z" fill="#A5A5A5"/>
<path fill-rule="evenodd" clip-rule="evenodd" d="M775.774 363.313H788.926V358.897H775.774V363.313Z" fill="#A5A5A5"/>
<path fill-rule="evenodd" clip-rule="evenodd" d="M741.199 301.96H768.778V277.692H741.199V301.96Z" fill="#C4C4C4"/>
<path fill-rule="evenodd" clip-rule="evenodd" d="M777.777 282.911H805.356V258.643H777.777V282.911Z" fill="#A5A5A5"/>
<path fill-rule="evenodd" clip-rule="evenodd" d="M785.845 321.851H810.095V294.252H785.845V321.851Z" fill="#A5A5A5"/>
<path fill-rule="evenodd" clip-rule="evenodd" d="M827.575 298.658H851.829V271.059H827.575V298.658Z" fill="#C4C4C4"/>
<path fill-rule="evenodd" clip-rule="evenodd" d="M860.395 286.247H884.645V258.643H860.395V286.247Z" fill="#A5A5A5"/>
<path fill-rule="evenodd" clip-rule="evenodd" d="M777.776 277.692L787.756 266.059L795.914 275.456L800.183 270.777L805.356 275.551V282.911H777.776V277.692Z" fill="#6C6C6C"/>
<path fill-rule="evenodd" clip-rule="evenodd" d="M845.251 283.065C845.251 286.106 842.788 288.571 839.75 288.571C836.711 288.571 834.248 286.106 834.248 283.065C834.248 280.025 836.711 277.56 839.75 277.56C842.788 277.56 845.251 280.025 845.251 283.065" fill="#6C6C6C"/>
<path fill-rule="evenodd" clip-rule="evenodd" d="M848.667 297.493C848.667 297.905 848.639 298.308 848.584 298.706H830.915C830.859 298.308 830.831 297.905 830.831 297.493C830.831 292.565 834.827 288.571 839.752 288.571C844.672 288.571 848.667 292.565 848.667 297.493" fill="#6C6C6C"/>
<path fill-rule="evenodd" clip-rule="evenodd" d="M871.232 273.695C871.232 276.135 869.256 278.113 866.817 278.113C864.379 278.113 862.403 276.135 862.403 273.695C862.403 271.255 864.379 269.277 866.817 269.277C869.256 269.277 871.232 271.255 871.232 273.695" fill="#6C6C6C"/>
<path fill-rule="evenodd" clip-rule="evenodd" d="M873.972 285.27C873.972 285.604 873.949 285.927 873.908 286.247H860.396V282.105C861.566 279.74 864.003 278.111 866.819 278.111C868.613 278.111 870.255 278.773 871.508 279.865C873.02 281.18 873.972 283.114 873.972 285.27" fill="#6C6C6C"/>
<path fill-rule="evenodd" clip-rule="evenodd" d="M883.107 276.347C883.107 278.955 880.995 281.068 878.39 281.068C875.784 281.068 873.672 278.955 873.672 276.347C873.672 273.74 875.784 271.626 878.39 271.626C880.995 271.626 883.107 273.74 883.107 276.347" fill="#6C6C6C"/>
<path fill-rule="evenodd" clip-rule="evenodd" d="M884.645 279.134V286.247H869.843C869.787 285.858 869.764 285.469 869.764 285.071C869.764 283.114 870.416 281.314 871.507 279.865C873.084 277.788 875.577 276.441 878.388 276.441H878.392C880.853 276.441 883.077 277.473 884.645 279.134" fill="#6C6C6C"/>
<path fill-rule="evenodd" clip-rule="evenodd" d="M758.446 287.132C758.446 291.064 755.261 294.252 751.332 294.252C747.403 294.252 744.217 291.064 744.217 287.132C744.217 283.2 747.403 280.013 751.332 280.013C755.261 280.013 758.446 283.2 758.446 287.132" fill="#6C6C6C"/>
<path fill-rule="evenodd" clip-rule="evenodd" d="M758.731 295.913C758.731 294.314 760.026 293.018 761.623 293.018C763.222 293.018 764.517 294.314 764.517 295.913C764.517 297.512 763.222 298.808 761.623 298.808C760.026 298.808 758.731 297.512 758.731 295.913" fill="#6C6C6C"/>
<path fill-rule="evenodd" clip-rule="evenodd" d="M806.151 306.853C806.151 311.375 802.488 315.04 797.97 315.04C793.452 315.04 789.789 311.375 789.789 306.853C789.789 302.331 793.452 298.666 797.97 298.666C802.488 298.666 806.151 302.331 806.151 306.853" fill="#6C6C6C"/>
<path fill-rule="evenodd" clip-rule="evenodd" d="M798.116 332.787H825.695V308.519H798.116V332.787Z" fill="#C4C4C4"/>
<path fill-rule="evenodd" clip-rule="evenodd" d="M798.115 327.567L808.095 315.934L816.253 325.332L820.522 320.653L825.695 325.427V332.787H798.115V327.567Z" fill="#6C6C6C"/>
<path fill-rule="evenodd" clip-rule="evenodd" d="M741.404 226.649H806.335V151.935H741.404V226.649Z" fill="#C4C4C4"/>
<path fill-rule="evenodd" clip-rule="evenodd" d="M741.404 226.649H806.335V151.935H741.404V226.649Z" stroke="#C4C4C4" stroke-width="6.3"/>
<path fill-rule="evenodd" clip-rule="evenodd" d="M738.944 226.649H803.875V151.935H738.944V226.649Z" fill="white"/>
<path fill-rule="evenodd" clip-rule="evenodd" d="M738.944 226.649H803.875V151.935H738.944V226.649Z" stroke="#C4C4C4" stroke-width="6.3"/>
<path fill-rule="evenodd" clip-rule="evenodd" d="M752.643 210.996H789.25V167.587H752.643V210.996Z" fill="#A5A5A5"/>
<path fill-rule="evenodd" clip-rule="evenodd" d="M833.041 226.649H897.972V151.935H833.041V226.649Z" fill="#C4C4C4"/>
<path fill-rule="evenodd" clip-rule="evenodd" d="M833.041 226.649H897.972V151.935H833.041V226.649Z" stroke="#C4C4C4" stroke-width="6.3"/>
<path fill-rule="evenodd" clip-rule="evenodd" d="M830.581 226.649H895.512V151.935H830.581V226.649Z" fill="white"/>
<path fill-rule="evenodd" clip-rule="evenodd" d="M830.581 226.649H895.512V151.935H830.581V226.649Z" stroke="#C4C4C4" stroke-width="6.3"/>
<path fill-rule="evenodd" clip-rule="evenodd" d="M844.28 210.996H880.887V167.587H844.28V210.996Z" fill="#C4C4C4"/>
<path fill-rule="evenodd" clip-rule="evenodd" d="M924.678 226.649H989.609V151.935H924.678V226.649Z" fill="#C4C4C4"/>
<path fill-rule="evenodd" clip-rule="evenodd" d="M924.678 226.649H989.609V151.935H924.678V226.649Z" stroke="#C4C4C4" stroke-width="6.3"/>
<path fill-rule="evenodd" clip-rule="evenodd" d="M922.218 226.649H987.149V151.935H922.218V226.649Z" fill="white"/>
<path fill-rule="evenodd" clip-rule="evenodd" d="M922.218 226.649H987.149V151.935H922.218V226.649Z" stroke="#C4C4C4" stroke-width="6.3"/>
<path fill-rule="evenodd" clip-rule="evenodd" d="M935.917 210.996H972.524V167.587H935.917V210.996Z" fill="#A5A5A5"/>
<path fill-rule="evenodd" clip-rule="evenodd" d="M963.419 384.035H961.078C950.164 384.035 941.315 375.18 941.315 364.258H983.182C983.182 375.18 974.334 384.035 963.419 384.035" fill="#C4C4C4"/>
<path fill-rule="evenodd" clip-rule="evenodd" d="M963.419 367.406H961.078C950.164 367.406 941.315 358.551 941.315 347.629V347.628H983.182V347.629C983.182 358.551 974.334 367.406 963.419 367.406" fill="#C4C4C4"/>
<path fill-rule="evenodd" clip-rule="evenodd" d="M963.419 350.776H961.078C950.164 350.776 941.315 341.921 941.315 330.998H983.182C983.182 341.921 974.334 350.776 963.419 350.776" fill="#C4C4C4"/>
<path fill-rule="evenodd" clip-rule="evenodd" d="M588.465 131.431H638.874V96H588.465V131.431Z" fill="#6C6C6C"/>
<path fill-rule="evenodd" clip-rule="evenodd" d="M624.092 108.459H603.626C601.703 108.459 600.144 106.899 600.144 104.974C600.144 103.05 601.703 101.49 603.626 101.49H624.092C626.015 101.49 627.574 103.05 627.574 104.974C627.574 106.899 626.015 108.459 624.092 108.459" fill="#A5A5A5"/>
<path fill-rule="evenodd" clip-rule="evenodd" d="M638.874 131.431H669.661V96H638.874V131.431Z" fill="#A5A5A5"/>
<path fill-rule="evenodd" clip-rule="evenodd" d="M542.427 503.106H554.696V463.215H542.427V503.106Z" fill="#C4C4C4"/>
<path fill-rule="evenodd" clip-rule="evenodd" d="M644.629 503.106H656.899V463.215H644.629V503.106Z" fill="#C4C4C4"/>
<path fill-rule="evenodd" clip-rule="evenodd" d="M663.308 503.106H675.578V463.215H663.308V503.106Z" fill="#C4C4C4"/>
<path fill-rule="evenodd" clip-rule="evenodd" d="M765.51 503.106H777.78V463.215H765.51V503.106Z" fill="#C4C4C4"/>
<path fill-rule="evenodd" clip-rule="evenodd" d="M784.189 503.106H796.459V463.215H784.189V503.106Z" fill="#C4C4C4"/>
<path fill-rule="evenodd" clip-rule="evenodd" d="M886.392 503.106H898.662V463.215H886.392V503.106Z" fill="#C4C4C4"/>
<path fill-rule="evenodd" clip-rule="evenodd" d="M905.071 503.106H917.341V463.215H905.071V503.106Z" fill="#C4C4C4"/>
<path fill-rule="evenodd" clip-rule="evenodd" d="M1007.27 503.106H1019.54V463.215H1007.27V503.106Z" fill="#C4C4C4"/>
<path fill-rule="evenodd" clip-rule="evenodd" d="M1025.95 503.106H1038.22V463.215H1025.95V503.106Z" fill="#C4C4C4"/>
<path fill-rule="evenodd" clip-rule="evenodd" d="M1128.15 503.106H1140.42V463.215H1128.15V503.106Z" fill="#C4C4C4"/>
<path fill-rule="evenodd" clip-rule="evenodd" d="M1069.4 503.106H1081.67V463.215H1069.4V503.106Z" fill="white"/>
<path fill-rule="evenodd" clip-rule="evenodd" d="M1171.6 503.106H1183.87V463.215H1171.6V503.106Z" fill="white"/>
<path fill-rule="evenodd" clip-rule="evenodd" d="M948.388 503.106H960.658V463.215H948.388V503.106Z" fill="white"/>
<path fill-rule="evenodd" clip-rule="evenodd" d="M1050.59 503.106H1062.86V463.215H1050.59V503.106Z" fill="white"/>
<path fill-rule="evenodd" clip-rule="evenodd" d="M827.578 503.106H839.848V463.215H827.578V503.106Z" fill="white"/>
<path fill-rule="evenodd" clip-rule="evenodd" d="M929.781 503.106H942.051V463.215H929.781V503.106Z" fill="white"/>
<path fill-rule="evenodd" clip-rule="evenodd" d="M706.566 503.106H718.836V463.215H706.566V503.106Z" fill="white"/>
<path fill-rule="evenodd" clip-rule="evenodd" d="M808.769 503.106H821.039V463.215H808.769V503.106Z" fill="white"/>
<path fill-rule="evenodd" clip-rule="evenodd" d="M585.946 503.106H598.216V463.215H585.946V503.106Z" fill="white"/>
<path fill-rule="evenodd" clip-rule="evenodd" d="M688.148 503.106H700.418V463.215H688.148V503.106Z" fill="white"/>
<path fill-rule="evenodd" clip-rule="evenodd" d="M585.875 470.292H700.348V131.431H585.875V470.292Z" fill="white"/>
<path fill-rule="evenodd" clip-rule="evenodd" d="M706.756 470.292H821.228V390.197H706.756V470.292Z" fill="white"/>
<path fill-rule="evenodd" clip-rule="evenodd" d="M827.638 470.292H942.11V390.197H827.638V470.292Z" fill="white"/>
<path fill-rule="evenodd" clip-rule="evenodd" d="M948.519 470.292H1062.99V296.59H948.519V470.292Z" fill="white"/>
<path fill-rule="evenodd" clip-rule="evenodd" d="M1069.4 470.292H1183.87V131.431H1069.4V470.292Z" fill="white"/>
<path fill-rule="evenodd" clip-rule="evenodd" d="M542.658 470.292H657.13V131.431H542.658V470.292Z" fill="#C4C4C4"/>
<path fill-rule="evenodd" clip-rule="evenodd" d="M663.308 470.292H777.78V390.197H663.308V470.292Z" fill="#C4C4C4"/>
<path fill-rule="evenodd" clip-rule="evenodd" d="M784.189 470.292H898.662V390.197H784.189V470.292Z" fill="#C4C4C4"/>
<path fill-rule="evenodd" clip-rule="evenodd" d="M905.07 470.292H1019.54V296.59H905.07V470.292Z" fill="#C4C4C4"/>
<path fill-rule="evenodd" clip-rule="evenodd" d="M1025.95 470.292H1140.42V131.431H1025.95V470.292Z" fill="#C4C4C4"/>
<path fill-rule="evenodd" clip-rule="evenodd" d="M915.633 458.354H1008.86V388.352H915.633V458.354Z" fill="#6C6C6C"/>
<path fill-rule="evenodd" clip-rule="evenodd" d="M794.809 459.923H888.041V400.566H794.809V459.923Z" fill="#6C6C6C"/>
<path fill-rule="evenodd" clip-rule="evenodd" d="M673.929 459.923H767.16V400.566H673.929V459.923Z" fill="#6C6C6C"/>
<path fill-rule="evenodd" clip-rule="evenodd" d="M1036.57 458.354H1129.8V308.254H1036.57V458.354Z" fill="#6C6C6C"/>
<path fill-rule="evenodd" clip-rule="evenodd" d="M1036.57 294.738H1129.8V144.638H1036.57V294.738Z" fill="#6C6C6C"/>
<path fill-rule="evenodd" clip-rule="evenodd" d="M553.278 456.646H646.51V306.545H553.278V456.646Z" fill="#6C6C6C"/>
<path fill-rule="evenodd" clip-rule="evenodd" d="M553.278 294.738H646.51V144.638H553.278V294.738Z" fill="#6C6C6C"/>
<path fill-rule="evenodd" clip-rule="evenodd" d="M915.633 378.255H1008.86V308.253H915.633V378.255Z" fill="white"/>
<path fill-rule="evenodd" clip-rule="evenodd" d="M981.83 378.255H1008.86V308.253H981.83V378.255Z" fill="#A5A5A5"/>
<path fill-rule="evenodd" clip-rule="evenodd" d="M861.732 378.255H923.494V308.253H861.732V378.255Z" fill="#A5A5A5"/>
<path fill-rule="evenodd" clip-rule="evenodd" d="M861.732 378.255H866.961V308.253H861.732V378.255Z" fill="#6C6C6C"/>
<path fill-rule="evenodd" clip-rule="evenodd" d="M638.874 349.855H646.51V317.698H638.874V349.855Z" fill="#A5A5A5"/>
<path fill-rule="evenodd" clip-rule="evenodd" d="M638.874 284.025H646.51V251.868H638.874V284.025Z" fill="#A5A5A5"/>
<path fill-rule="evenodd" clip-rule="evenodd" d="M1122.17 349.855H1129.8V317.698H1122.17V349.855Z" fill="#A5A5A5"/>
<path fill-rule="evenodd" clip-rule="evenodd" d="M1001.23 439.431H1008.86V407.274H1001.23V439.431Z" fill="#A5A5A5"/>
<path fill-rule="evenodd" clip-rule="evenodd" d="M825.359 408.208H857.492V400.566H825.359V408.208Z" fill="#A5A5A5"/>
<path fill-rule="evenodd" clip-rule="evenodd" d="M704.477 408.208H736.611V400.566H704.477V408.208Z" fill="#A5A5A5"/>
<path fill-rule="evenodd" clip-rule="evenodd" d="M1122.17 284.025H1129.8V251.868H1122.17V284.025Z" fill="#A5A5A5"/>
<path fill-rule="evenodd" clip-rule="evenodd" d="M857.285 364.399H861.731V322.11H857.285V364.399Z" fill="#A5A5A5"/>
</g>
<path fill-rule="evenodd" clip-rule="evenodd" d="M910.552 528.981H922.03V372.753H910.552V528.981Z" fill="#444554"/>
<path fill-rule="evenodd" clip-rule="evenodd" d="M922.03 528.981H933.507V372.753H922.03V528.981Z" fill="#444554"/>
<path fill-rule="evenodd" clip-rule="evenodd" d="M991.334 528.981H1002.81V372.753H991.334V528.981Z" fill="#444554"/>
<path fill-rule="evenodd" clip-rule="evenodd" d="M1002.81 528.981H1014.29V372.753H1002.81V528.981Z" fill="#767886"/>
<path fill-rule="evenodd" clip-rule="evenodd" d="M771.536 372.753H1047.85V361.576H771.536V372.753Z" fill="#767886"/>
<path fill-rule="evenodd" clip-rule="evenodd" d="M708.362 528.981H719.84V372.753H708.362V528.981Z" fill="#444554"/>
<path fill-rule="evenodd" clip-rule="evenodd" d="M719.84 528.981H731.317V372.753H719.84V528.981Z" fill="#767886"/>
<path fill-rule="evenodd" clip-rule="evenodd" d="M789.606 528.981H801.084V372.753H789.606V528.981Z" fill="#444554"/>
<path fill-rule="evenodd" clip-rule="evenodd" d="M710.592 439.677H801.084V372.753H710.592V439.677Z" fill="#444554"/>
<path fill-rule="evenodd" clip-rule="evenodd" d="M801.084 528.981H812.561V372.753H801.084V528.981Z" fill="#767886"/>
<path fill-rule="evenodd" clip-rule="evenodd" d="M809.496 439.677H869.996V372.753H809.496V439.677Z" fill="#767886"/>
<path fill-rule="evenodd" clip-rule="evenodd" d="M671.511 372.753H771.536V361.576H671.511V372.753Z" fill="#444554"/>
<path fill-rule="evenodd" clip-rule="evenodd" d="M714.765 379.917H869.996V372.754H714.765V379.917Z" fill="#444554"/>
<path fill-rule="evenodd" clip-rule="evenodd" d="M812.561 439.677H816.14V377.493H812.561V439.677Z" fill="#444554"/>
<path fill-rule="evenodd" clip-rule="evenodd" d="M848.212 418.817C848.212 421.452 846.078 423.587 843.445 423.587C840.813 423.587 838.679 421.452 838.679 418.817C838.679 416.183 840.813 414.047 843.445 414.047C846.078 414.047 848.212 416.183 848.212 418.817" fill="#444554"/>
<path fill-rule="evenodd" clip-rule="evenodd" d="M848.212 394.149C848.212 396.783 846.078 398.919 843.445 398.919C840.813 398.919 838.679 396.783 838.679 394.149C838.679 391.515 840.813 389.378 843.445 389.378C846.078 389.378 848.212 391.515 848.212 394.149" fill="#444554"/>
<path fill-rule="evenodd" clip-rule="evenodd" d="M859.335 296H781.706L799.921 356.061H877.551L859.335 296Z" fill="#6A7381"/>
<path fill-rule="evenodd" clip-rule="evenodd" d="M787.171 299.864L802.721 351.146H872.19L856.64 299.864H787.171Z" fill="#121417"/>
<path fill-rule="evenodd" clip-rule="evenodd" d="M794 306L794.269 308H815L814.731 306H794Z" fill="#6A7381"/>
<path fill-rule="evenodd" clip-rule="evenodd" d="M795.882 310.476L796.289 312.994H824.205L823.798 310.476H795.882Z" fill="#6A7381"/>
<path fill-rule="evenodd" clip-rule="evenodd" d="M797.141 315.511L797.666 318.029H838.052L837.528 315.511H797.141Z" fill="#6A7381"/>
<path fill-rule="evenodd" clip-rule="evenodd" d="M798.4 320.547L798.6 323.064H813.505L813.305 320.547H798.4Z" fill="#6A7381"/>
<path fill-rule="evenodd" clip-rule="evenodd" d="M821.058 320.547L821.258 323.064H836.164L835.964 320.547H821.058Z" fill="#6A7381"/>
<path fill-rule="evenodd" clip-rule="evenodd" d="M831.758 310.476L831.958 312.994H846.864L846.663 310.476H831.758Z" fill="#6A7381"/>
<path fill-rule="evenodd" clip-rule="evenodd" d="M823 306L823.199 308H838L837.801 306H823Z" fill="#6A7381"/>
<path fill-rule="evenodd" clip-rule="evenodd" d="M814.135 320.547L814.218 323.064H820.429L820.345 320.547H814.135Z" fill="#0AC295"/>
<path fill-rule="evenodd" clip-rule="evenodd" d="M824.835 310.476L824.918 312.994H831.129L831.045 310.476H824.835Z" fill="#0AC295"/>
<path fill-rule="evenodd" clip-rule="evenodd" d="M816 306L816.08 308H822L821.921 306H816Z" fill="#FFB400"/>
<path fill-rule="evenodd" clip-rule="evenodd" d="M838.681 315.511L838.765 318.029H844.975L844.892 315.511H838.681Z" fill="#FFB400"/>
<path fill-rule="evenodd" clip-rule="evenodd" d="M845.605 315.511L845.688 318.029H851.899L851.815 315.511H845.605Z" fill="#6A7381"/>
<path fill-rule="evenodd" clip-rule="evenodd" d="M799.658 325.637L800.399 328.09H840L839.259 325.637H799.658Z" fill="#6A7381"/>
<path fill-rule="evenodd" clip-rule="evenodd" d="M934.314 361H856.685V356.061H934.314V361Z" fill="#6A7381"/>
<path fill-rule="evenodd" clip-rule="evenodd" d="M856.685 361H799.949V356.061H856.685V361Z" fill="#1F2329"/>
<path fill-rule="evenodd" clip-rule="evenodd" d="M781.77 296H777L795.214 356.061H799.985L781.77 296Z" fill="#1F2329"/>
<path fill-rule="evenodd" clip-rule="evenodd" d="M933.196 244.654C933.196 244.654 921.264 262.785 939.478 266.051Z" fill="#034AB3"/>
<path fill-rule="evenodd" clip-rule="evenodd" d="M936.294 270.636L932.914 279.977L937.417 279.85L936.294 270.636Z" fill="#EAF1FB"/>
<path fill-rule="evenodd" clip-rule="evenodd" d="M980.154 263.724C981.183 259.77 982.423 280.962 982.423 280.962L985.783 298.702L962.958 306.188L961.349 286.751C961.349 286.751 942.603 289.581 938.522 287.82C938.522 287.82 934.202 269.631 936.102 256.376L950.57 241.269L975.684 241.302L980.154 263.724Z" fill="#EAF1FB"/>
<path d="M962.272 277.525C962.272 277.525 972.174 275.022 975.585 267.964" stroke="#A8B1BD" stroke-width="2.1"/>
<path fill-rule="evenodd" clip-rule="evenodd" d="M980.519 275.582C986.435 275.573 994.277 253.505 984.932 241.634C972.318 225.608 958.928 233.625 958.928 233.625C958.928 233.625 954.3 218.975 944.473 219.729C930.473 220.803 929.876 242.613 929.876 242.613C929.876 242.613 925.528 231.09 921.637 233.064C917.745 235.038 918.742 269.978 949.287 254.226C949.287 254.226 948.857 265.08 956.401 264.722C959.652 264.568 960.741 259.945 960.741 259.945C960.741 259.945 968.221 266.503 973.496 269.523C973.496 269.523 977.784 275.587 980.519 275.582" fill="#034AB3"/>
<path d="M978.991 225.364L976.652 236.511L979.904 237.818L986.163 230.44" stroke="#034AB3" stroke-width="6.3"/>
<path fill-rule="evenodd" clip-rule="evenodd" d="M961.349 286.751L969.976 284.991L961.819 292.43L961.349 286.751Z" fill="#A8B1BD"/>
<path d="M938.721 281.765C938.721 281.765 941.625 281.972 941.667 279.134" stroke="#6A7381" stroke-width="2.1"/>
<path fill-rule="evenodd" clip-rule="evenodd" d="M941.49 270.922C941.434 272.135 940.406 273.074 939.194 273.018C937.982 272.963 937.044 271.934 937.099 270.721C937.155 269.507 938.183 268.569 939.395 268.624C940.608 268.68 941.545 269.709 941.49 270.922" fill="#1F2329"/>
<path fill-rule="evenodd" clip-rule="evenodd" d="M1005.55 484.799L1019.07 504.337L1011.52 520.016L994.174 528.982H1020.95L1039.16 507.365L1016.18 473.057L1005.55 484.799Z" fill="#034AB3"/>
<path fill-rule="evenodd" clip-rule="evenodd" d="M1017.78 470.613L1031.22 495.5L1019.07 504.162L1005.55 484.733L1017.78 470.613Z" fill="#A8B1BD"/>
<path fill-rule="evenodd" clip-rule="evenodd" d="M924.98 498.046L926.722 513.737C926.722 513.737 901.616 518.227 889.582 528.981L951.405 528.852L940.107 494.764L924.98 498.046Z" fill="#034AB3"/>
<path fill-rule="evenodd" clip-rule="evenodd" d="M941.383 494.797L946.234 513.204L926.722 513.738L925.25 500.24L941.383 494.797Z" fill="#A8B1BD"/>
<path fill-rule="evenodd" clip-rule="evenodd" d="M989.968 402.736L1033.34 489.039L1010.71 501.331L955.716 413.416L989.968 402.736Z" fill="black"/>
<path fill-rule="evenodd" clip-rule="evenodd" d="M926.838 404.365L950.469 506.6H921.787L885.54 396.075C881.771 384.579 890.328 372.755 902.418 372.755H1007.75V404.365H926.838Z" fill="#242237"/>
<path fill-rule="evenodd" clip-rule="evenodd" d="M909.119 366.702L874.304 353.33L878.408 342.151L910.942 348.978L928.985 319.101L947.625 334.598L925.716 365.63C922.467 369.686 916.382 369.93 909.119 366.702" fill="#EAF1FB"/>
<path fill-rule="evenodd" clip-rule="evenodd" d="M951.311 422.164H1031.72V419.387H951.311V422.164Z" fill="#6FA1EC"/>
<path fill-rule="evenodd" clip-rule="evenodd" d="M1011.7 419.387H952.627C949.647 419.387 947.232 416.97 947.232 413.988V409.764C947.232 406.783 949.647 404.365 952.627 404.365H1011.7C1014.68 404.365 1017.09 406.783 1017.09 409.764V413.988C1017.09 416.97 1014.68 419.387 1011.7 419.387" fill="#2F73DA"/>
<path fill-rule="evenodd" clip-rule="evenodd" d="M1015.58 340.248L1012.31 372.835L955.808 372.674L948.678 341.999L942.577 351.017L914.947 335.164C914.947 335.164 924.939 317.492 930.976 311.282C944.404 297.469 956.362 293.729 969.335 293.751C982.298 293.774 978.891 291.993 990.919 295.027C999.319 297.147 1006.77 302.984 1011.03 317.508C1015.46 332.583 1015.58 340.248 1015.58 340.248" fill="black"/>
<path fill-rule="evenodd" clip-rule="evenodd" d="M1042.33 422.164H1004.88L997.945 377.276V342.639C997.945 325.772 1011.61 312.097 1028.46 312.097C1045.32 312.097 1058.98 325.772 1058.98 342.639V377.276L1062.67 398.78C1064.39 411.138 1054.8 422.164 1042.33 422.164" fill="#6FA1EC"/>
<path fill-rule="evenodd" clip-rule="evenodd" d="M1004.51 419.387H980.924C993.317 419.387 1002.88 408.489 1001.3 396.221L1004.51 419.387Z" fill="#6FA1EC"/>
<path fill-rule="evenodd" clip-rule="evenodd" d="M1041.09 342.146C1041.09 348.31 1036.1 353.307 1029.94 353.307C1029.63 353.307 1029.33 353.294 1029.03 353.27C1028.8 353.252 1028.56 353.224 1028.33 353.187C1022.94 352.414 1018.79 347.764 1018.79 342.146C1018.79 336.532 1022.94 331.882 1028.33 331.109C1028.56 331.072 1028.8 331.044 1029.03 331.025C1029.33 331.002 1029.63 330.988 1029.94 330.988C1036.1 330.988 1041.09 335.986 1041.09 342.146" fill="#034AB3"/>
<path fill-rule="evenodd" clip-rule="evenodd" d="M1037.87 342.146C1037.87 347.759 1033.73 352.405 1028.33 353.187C1022.94 352.414 1018.79 347.763 1018.79 342.146C1018.79 336.532 1022.94 331.881 1028.33 331.109C1033.73 331.891 1037.87 336.537 1037.87 342.146" fill="#1F2329"/>
<path fill-rule="evenodd" clip-rule="evenodd" d="M1000.49 519.889H1005.54V422.164H1000.49V519.889Z" fill="#6A7381"/>
<path fill-rule="evenodd" clip-rule="evenodd" d="M1031.04 422.164L1003.02 434.933L975.001 422.164H1031.04Z" fill="#6A7381"/>
<path fill-rule="evenodd" clip-rule="evenodd" d="M988.734 294.489C989.283 296.266 987.491 298.76 980.651 298.9C972.246 299.071 962.934 297.424 961.367 294.246C971.966 292.543 979.083 292.048 988.734 294.489" fill="#EAF1FB"/>
<path fill-rule="evenodd" clip-rule="evenodd" d="M883.219 344.34L875.574 337.096C875.574 337.096 873.728 335.9 871.504 334.877C869.28 333.854 868.28 333.673 865.121 330.535C862.919 328.349 862.469 331.929 863.36 333.905C864.25 335.882 870.619 338.926 869.257 340.906C867.894 342.886 863.002 345.498 857.811 343.187C857.114 342.876 854.705 345.604 859.439 352.048C861.772 355.224 867.025 358.159 869.42 357.459C869.42 357.459 876.215 355.696 878.954 354.845C881.664 354.003 879.805 348.39 883.219 344.34" fill="#EAF1FB"/>
<path fill-rule="evenodd" clip-rule="evenodd" d="M948.678 341.999L950.939 338.579L952.31 357.626L948.678 341.999Z" fill="black"/>
<path fill-rule="evenodd" clip-rule="evenodd" d="M975.531 267.041C972.964 274.644 960.216 277.502 960.216 277.502L960.33 273.727L960.74 259.945C961.847 256.051 972.658 252.083 975.504 261.331C976.167 263.476 976.092 265.371 975.531 267.041" fill="#EAF1FB"/>
<path d="M963.497 270.821C963.497 270.821 966.414 270.326 965.794 267.834C965.193 265.424 962.806 265.489 962.806 265.489C962.806 265.489 963.084 259.161 968.867 259.751" stroke="#A8B1BD" stroke-width="2.1"/>
<path fill-rule="evenodd" clip-rule="evenodd" d="M917.904 336.827L938.002 348.318L933.668 354.456L917.904 336.827Z" fill="#A8B1BD"/>
<path d="M911.081 348.987L907.65 354.703" stroke="#A8B1BD" stroke-width="2.1"/>
</g>
<defs>
<clipPath id="clip0">
<rect width="1208" height="495" fill="white"/>
</clipPath>
</defs>
</svg>
