<svg width="101" height="32" viewBox="0 0 101 32" fill="none" xmlns="http://www.w3.org/2000/svg">
<path fill-rule="evenodd" clip-rule="evenodd" d="M28.7354 9H31.9438C31.9924 9 32.0178 9.05669 31.9861 9.08819L26.5584 15.9834C26.5415 16.0002 26.5415 16.0338 26.5584 16.0485L31.9861 22.9438C32.0178 22.9837 31.9861 23.0341 31.9438 23.0341H28.7354C28.7206 23.0341 28.7037 23.0257 28.6953 23.0089L24.9056 18.0894C24.8887 18.0663 24.8485 18.0663 24.8232 18.0894L21.0335 23.0089C21.0251 23.0257 21.0103 23.0341 20.9934 23.0341H17.785C17.7427 23.0341 17.7216 22.9753 17.7427 22.9438L23.1704 16.0485C23.1852 16.0338 23.1852 16.0002 23.1704 15.9834L17.7427 9.08819C17.7131 9.04829 17.7427 9 17.785 9H20.9934C21.0103 9 21.0251 9.0084 21.0335 9.0252L24.8232 13.9426C24.8401 13.9678 24.8803 13.9678 24.9056 13.9426L28.6953 9.0252C28.7037 9.0084 28.7206 9 28.7354 9ZM16.485 22.7264L18.5964 20.1396C18.6112 20.1228 18.6197 20.0997 18.6197 20.0829L17.0007 9.0828C16.9922 9.04291 16.9584 9.00932 16.9182 9.00932H14.7814C14.7476 9.00932 14.7159 9.02611 14.7074 9.05761L9.63272 19.3354C9.60102 19.4005 9.51013 19.4005 9.48688 19.3354L4.36145 9.05761C4.34454 9.02611 4.32129 9.00932 4.28959 9.00932H2.12951C2.08723 9.00932 2.05342 9.04291 2.04496 9.0828L0.00112912 22.9447C-0.0073252 22.993 0.0328328 23.0413 0.0835588 23.0413H2.57758C2.61986 23.0413 2.66213 23.0098 2.66213 22.9699L3.89435 13.9603C3.9028 13.8784 4.01905 13.8637 4.05286 13.9372L8.57593 23.0014C8.59284 23.035 8.6182 23.0497 8.6499 23.0497H10.419C10.4507 23.0497 10.4845 23.035 10.4929 23.0014L14.9611 13.9855C14.9928 13.912 15.109 13.9288 15.1175 14.0086L16.3349 22.6844C16.3433 22.7578 16.4427 22.7809 16.485 22.7264Z" fill="white"/>
<rect x="44" y="8" width="1" height="16" fill="white"/>
<path d="M61.896 21C65.208 21 67.368 18.712 67.368 15.672C67.368 12.648 65.208 10.328 61.896 10.328H58.248V21H61.896ZM61.896 19.816H59.576V11.512H61.896C64.536 11.512 65.992 13.368 65.992 15.672C65.992 17.96 64.488 19.816 61.896 19.816ZM74.3151 21.192C77.4671 21.192 79.6111 18.824 79.6111 15.672C79.6111 12.52 77.4671 10.152 74.3151 10.152C71.1471 10.152 69.0191 12.52 69.0191 15.672C69.0191 18.824 71.1471 21.192 74.3151 21.192ZM74.3151 20.008C71.9151 20.008 70.3951 18.152 70.3951 15.672C70.3951 13.176 71.9151 11.336 74.3151 11.336C76.6991 11.336 78.2351 13.176 78.2351 15.672C78.2351 18.152 76.6991 20.008 74.3151 20.008ZM86.7415 21.192C88.6295 21.192 89.9095 20.296 90.8055 19.08L89.6695 18.456C89.0615 19.368 87.9575 20.008 86.7415 20.008C84.4055 20.008 82.6295 18.2 82.6295 15.672C82.6295 13.128 84.4055 11.336 86.7415 11.336C87.9575 11.336 89.0615 11.992 89.6695 12.888L90.7895 12.264C89.9415 11.064 88.6295 10.152 86.7415 10.152C83.6695 10.152 81.2535 12.392 81.2535 15.672C81.2535 18.952 83.6695 21.192 86.7415 21.192ZM95.954 21.192C98.834 21.192 99.89 19.608 99.89 18.056C99.89 14.072 93.57 15.448 93.57 13.048C93.57 12.04 94.482 11.352 95.762 11.352C96.93 11.352 98.05 11.752 98.85 12.632L99.65 11.656C98.754 10.712 97.49 10.168 95.858 10.168C93.762 10.168 92.194 11.368 92.194 13.128C92.194 16.936 98.514 15.416 98.514 18.168C98.514 18.984 97.906 20.008 96.002 20.008C94.498 20.008 93.346 19.272 92.642 18.488L91.858 19.496C92.738 20.488 94.098 21.192 95.954 21.192Z" fill="white"/>
</svg>
